<?xml version="1.0" encoding="utf-8"?>
<!-- Generator: Adobe Illustrator 21.1.0, SVG Export Plug-In . SVG Version: 6.00 Build 0)  -->
<svg version="1.1" id="Layer_1" xmlns="http://www.w3.org/2000/svg" xmlns:xlink="http://www.w3.org/1999/xlink" x="0px" y="0px"
	 viewBox="0 0 100 100" style="enable-background:new 0 0 100 100;" xml:space="preserve">
<style type="text/css">
	.st0{fill:none;stroke:#666666;stroke-miterlimit:10;}
</style>
<g>
	<path class="st0" d="M12.4,66c2.9-6.8,5.8-13.6,8.8-20.4c2.9,6.8,5.8,13.6,8.7,20.4h7.2c-4-9.4-8.1-18.9-12.1-28.3
		c-0.2-0.4-0.4-0.8-0.5-1.3c-1.2-2.7-5.4-2.7-6.5,0c-4.2,9.7-8.4,19.5-12.6,29.2c0,0.1-0.1,0.2-0.1,0.3H12.4z"/>
	<path class="st0" d="M38.3,66h7.1c0,0,7.4-27.8,7.6-28.2c0.6-1.5-0.6-3.2-2.4-3.6c-1.8-0.4-3.6,0.5-4.2,2L38.3,66z"/>
	<path class="st0" d="M76.7,66c0-9.5,0-18.9,0-28.4c0-0.1,0-0.2,0-0.4c0-3.7-6.8-3.7-6.8,0c0,9.6,0,19.2,0,28.8H76.7z"/>
	<path class="st0" d="M96.8,66c0-9.5,0-19,0-28.4c0-0.2,0-0.3,0-0.5c0-3.7-6.8-3.7-6.8,0c0,9.6,0,19.3,0,28.9H96.8z"/>
	<path class="st0" d="M87.9,66c0.7-0.9,1.1-2.1,1.1-3.4c0-3.1-2.5-5.7-5.7-5.7c-3.1,0-5.7,2.5-5.7,5.7c0,1.3,0.4,2.4,1.1,3.4H87.9z"
		/>
	<path class="st0" d="M58,66c0.7-0.9,1.1-2.1,1.1-3.4c0-3.1-2.5-5.7-5.7-5.7c-3.1,0-5.7,2.5-5.7,5.7c0,1.3,0.4,2.4,1.1,3.4H58z"/>
	<path class="st0" d="M25.8,66c0.7-0.9,1.1-2.1,1.1-3.4c0-3.1-2.5-5.7-5.7-5.7c-3.1,0-5.7,2.5-5.7,5.7c0,1.3,0.4,2.4,1.1,3.4H25.8z"
		/>
	<path class="st0" d="M68.8,66h-7.1c0,0-7.4-27.8-7.6-28.2c-0.6-1.5,0.6-3.2,2.4-3.6c1.8-0.4,3.6,0.5,4.2,2L68.8,66z"/>
</g>
</svg>
