<?xml version="1.0" encoding="utf-8"?>
<!-- Generator: Adobe Illustrator 16.0.0, SVG Export Plug-In . SVG Version: 6.00 Build 0)  -->
<!DOCTYPE svg PUBLIC "-//W3C//DTD SVG 1.1//EN" "http://www.w3.org/Graphics/SVG/1.1/DTD/svg11.dtd">
<svg version="1.1" id="Layer_1" xmlns="http://www.w3.org/2000/svg" xmlns:xlink="http://www.w3.org/1999/xlink" x="0px" y="0px"
	 width="100px" height="100px" viewBox="0 0 100 100" enable-background="new 0 0 100 100" xml:space="preserve">
<path fill-rule="evenodd" clip-rule="evenodd" fill="#333333" d="M67.767,37.513c0,8.324,0,16.648,0,24.975
	c-0.033,0.116-0.07,0.23-0.094,0.349c-0.514,2.462-1.975,4.047-4.396,4.738c-0.26,0.074-0.527,0.129-0.789,0.191
	c-8.324,0-16.65,0-24.975,0c-0.098-0.028-0.195-0.064-0.293-0.082c-2.295-0.44-3.85-1.76-4.66-3.946
	c-0.148-0.401-0.221-0.832-0.326-1.25c0-8.326,0-16.65,0-24.975c0.029-0.107,0.068-0.214,0.09-0.32
	c0.508-2.49,1.98-4.083,4.426-4.773c0.252-0.072,0.508-0.124,0.764-0.186c8.324,0,16.65,0,24.975,0
	c0.107,0.029,0.213,0.064,0.32,0.088c2.486,0.513,4.086,1.98,4.773,4.429C67.651,37.001,67.704,37.259,67.767,37.513z
	 M49.999,57.769c0,2.496,0.004,4.994-0.006,7.49c0,0.231,0.051,0.301,0.291,0.3c2.006-0.012,4.012-0.007,6.016-0.007
	c0.41,0,0.379,0.064,0.379-0.379c0-4.946,0.002-9.893-0.006-14.839c-0.002-0.271,0.064-0.344,0.34-0.341
	c1.73,0.014,3.461,0.005,5.191,0.01c0.189,0.002,0.256-0.052,0.287-0.244c0.248-1.48,0.51-2.961,0.77-4.441
	c0.072-0.411,0.076-0.409-0.354-0.409c-1.977-0.002-3.953-0.002-5.93,0c-0.17,0.002-0.307,0.013-0.303-0.24
	c0.016-1.002,0.006-2.005,0.021-3.008c0.006-0.271,0.053-0.546,0.119-0.81c0.104-0.419,0.381-0.701,0.803-0.793
	c0.303-0.066,0.617-0.091,0.928-0.093c1.484-0.01,2.969-0.01,4.455,0.001c0.232,0.001,0.307-0.065,0.303-0.303
	c-0.008-1.636-0.008-3.271,0.002-4.908c0.002-0.251-0.068-0.314-0.316-0.313c-1.873,0.011-3.746,0.008-5.619,0.005
	c-1.072,0-2.135,0.087-3.168,0.39c-1.564,0.457-2.77,1.357-3.471,2.858c-0.484,1.036-0.689,2.14-0.715,3.273
	c-0.027,1.218-0.02,2.438-0.012,3.659c0,0.224-0.061,0.288-0.283,0.286c-0.889-0.013-1.779,0.001-2.668-0.01
	c-0.213-0.002-0.273,0.064-0.273,0.276c0.008,1.522,0.008,3.045,0,4.566c0,0.195,0.049,0.261,0.252,0.259
	c0.898-0.012,1.797,0.003,2.695-0.011c0.23-0.004,0.277,0.066,0.277,0.283C49.997,52.775,49.999,55.271,49.999,57.769z"/>
</svg>
