<svg version="1.1" id="Layer_1" xmlns="http://www.w3.org/2000/svg" xmlns:xlink="http://www.w3.org/1999/xlink" x="0px" y="0px"
	 width="320px" height="320px" viewBox="0 0 320 320" enable-background="new 0 0 320 320" xml:space="preserve">
<g>
	<path fill="none" stroke="#666666" stroke-width="2" stroke-miterlimit="10" d="M267.801,35.293h-46.863
		c0,0-23.413,21.467-37.145,64.352h-47.577c-13.73-42.885-37.144-64.352-37.144-64.352H52.199c0,0-46.872,42.903-46.872,128.706
		c0,85.806,46.872,128.708,46.872,128.708h46.873c0,0,23.413-21.472,37.144-64.349h47.577
		c13.731,42.877,37.145,64.349,37.145,64.349h46.863c0,0,46.872-42.901,46.872-128.708
		C314.673,78.197,267.801,35.293,267.801,35.293z"/>
	<path fill="none" stroke="#666666" stroke-width="2" stroke-miterlimit="10" d="M258.43,67.468h-28.121
		c0,0-18.732,21.467-25.621,64.354h-89.375c-6.889-42.887-25.611-64.354-25.611-64.354H61.58c0,0-28.132,32.177-28.132,96.531
		c0,64.359,28.132,96.534,28.132,96.534h28.121c0,0,18.723-21.467,25.611-64.354h89.375c6.889,42.887,25.621,64.354,25.621,64.354
		h28.121c0,0,28.122-32.175,28.122-96.534C286.552,99.646,258.43,67.468,258.43,67.468z"/>
</g>
</svg>
