<?xml version="1.0" encoding="utf-8"?>
<!-- Generator: Adobe Illustrator 16.0.0, SVG Export Plug-In . SVG Version: 6.00 Build 0)  -->
<!DOCTYPE svg PUBLIC "-//W3C//DTD SVG 1.1//EN" "http://www.w3.org/Graphics/SVG/1.1/DTD/svg11.dtd">
<svg version="1.1" id="Layer_1" xmlns="http://www.w3.org/2000/svg" xmlns:xlink="http://www.w3.org/1999/xlink" x="0px" y="0px"
	 width="320px" height="320px" viewBox="0 0 320 320" enable-background="new 0 0 320 320" xml:space="preserve">
<g>
	<path fill-rule="evenodd" clip-rule="evenodd" fill="none" stroke="#666666" stroke-width="2" stroke-miterlimit="10" d="
		M160,281.968c0,0,17.424,17.425,34.848,17.425s52.272-17.425,69.696-69.693c17.424-52.274,17.424-156.818-34.848-156.818
		c-34.848,0-34.848,17.422-52.272,17.422c-17.424,0,0-17.422-17.424-17.422s0,17.422-17.424,17.422
		c-17.424,0-17.424-17.422-52.272-17.422c-52.272,0-52.272,104.544-34.848,156.818c17.424,52.269,52.272,69.693,69.696,69.693
		S160,281.968,160,281.968z"/>
	<path fill-rule="evenodd" clip-rule="evenodd" fill="none" stroke="#666666" stroke-width="2" stroke-miterlimit="10" d="
		M125.152,264.541C160,264.541,160,212.268,160,212.268s0,52.273,34.848,52.273c69.696,0,69.696-156.815,34.848-156.815
		c-17.424,0-17.424,17.426-17.424,34.85c0,17.422-17.424,34.849-34.849,34.849c-17.424,0-17.424,0-34.848,0
		c-17.424,0-34.849-17.427-34.849-34.849c0-17.424,0-34.85-17.424-34.85C55.456,107.726,55.456,264.541,125.152,264.541z"/>
	<path fill-rule="evenodd" clip-rule="evenodd" fill="none" stroke="#666666" stroke-width="2" stroke-miterlimit="10" d="
		M177.424,90.304c0-52.272-17.424-69.696-52.272-69.696v34.846c17.424,0,17.424,0,17.424,34.85"/>
</g>
</svg>
