<?xml version="1.0" encoding="utf-8"?>
<!-- Generator: Adobe Illustrator 16.0.0, SVG Export Plug-In . SVG Version: 6.00 Build 0)  -->
<!DOCTYPE svg PUBLIC "-//W3C//DTD SVG 1.1//EN" "http://www.w3.org/Graphics/SVG/1.1/DTD/svg11.dtd">
<svg version="1.1" id="Layer_1" xmlns="http://www.w3.org/2000/svg" xmlns:xlink="http://www.w3.org/1999/xlink" x="0px" y="0px"
	 width="100px" height="100px" viewBox="0 0 100 100" enable-background="new 0 0 100 100" xml:space="preserve">
<g>
	<path fill-rule="evenodd" clip-rule="evenodd" fill="#333333" d="M50.02,32.233c2.383,0.043,4.768,0.066,7.15,0.133
		c2.082,0.058,4.102,0.428,5.908,1.539c2.352,1.445,3.787,3.568,4.242,6.265c0.271,1.614,0.369,3.27,0.396,4.908
		c0.053,3.513,0.031,7.025-0.006,10.538c-0.021,1.85-0.082,3.706-0.691,5.487c-1.186,3.453-3.607,5.549-7.156,6.229
		c-1.602,0.307-3.268,0.376-4.906,0.4c-3.523,0.054-7.051,0.033-10.576-0.005c-1.85-0.021-3.707-0.084-5.486-0.699
		c-3.449-1.192-5.541-3.616-6.213-7.167c-0.303-1.604-0.373-3.268-0.398-4.906c-0.053-3.512-0.033-7.025,0.006-10.537
		c0.02-1.85,0.08-3.707,0.691-5.487c1.186-3.453,3.607-5.549,7.154-6.229c1.604-0.307,3.268-0.34,4.908-0.404
		c1.654-0.065,3.316-0.015,4.977-0.015C50.02,32.268,50.02,32.251,50.02,32.233z M64.605,49.738
		c-0.023-0.001-0.049-0.001-0.072-0.001c0-1.4,0.039-2.801-0.01-4.199c-0.055-1.513-0.084-3.038-0.313-4.529
		c-0.381-2.465-1.762-4.212-4.195-4.956c-0.881-0.27-1.826-0.424-2.748-0.448c-3.238-0.086-6.479-0.128-9.719-0.116
		c-2.031,0.007-4.07,0.057-6.092,0.237c-2.98,0.265-5.053,2.09-5.604,5.019c-0.299,1.592-0.342,3.243-0.373,4.87
		c-0.055,2.929-0.037,5.858-0.006,8.787c0.016,1.385,0.084,2.773,0.223,4.15c0.303,2.977,2.08,5.04,5.018,5.608
		c1.564,0.303,3.191,0.347,4.791,0.376c2.994,0.056,5.99,0.037,8.984,0.006c1.346-0.014,2.693-0.091,4.031-0.225
		c1.266-0.124,2.449-0.535,3.467-1.342c1.65-1.308,2.291-3.114,2.389-5.117C64.508,55.155,64.533,52.445,64.605,49.738z"/>
	<path fill-rule="evenodd" clip-rule="evenodd" fill="#333333" d="M50.002,59.131c-5.08,0-9.115-4.052-9.115-9.149
		c0-5.055,4.072-9.078,9.186-9.075c5.018,0.001,9.043,4.092,9.039,9.187C59.109,55.08,55.027,59.131,50.002,59.131z M50.016,44.105
		c-3.244-0.009-5.916,2.647-5.928,5.896c-0.014,3.238,2.646,5.915,5.895,5.93c3.236,0.014,5.916-2.65,5.93-5.896
		C55.924,46.794,53.26,44.114,50.016,44.105z"/>
	<path fill-rule="evenodd" clip-rule="evenodd" fill="#333333" d="M61.602,40.545c-0.002,1.19-0.971,2.161-2.141,2.146
		s-2.123-0.966-2.135-2.127c-0.014-1.179,0.949-2.145,2.139-2.148C60.674,38.413,61.602,39.337,61.602,40.545z"/>
</g>
</svg>
