<?xml version="1.0" encoding="utf-8"?>
<!-- Generator: Adobe Illustrator 16.0.0, SVG Export Plug-In . SVG Version: 6.00 Build 0)  -->
<!DOCTYPE svg PUBLIC "-//W3C//DTD SVG 1.1//EN" "http://www.w3.org/Graphics/SVG/1.1/DTD/svg11.dtd">
<svg version="1.1" id="Layer_1" xmlns="http://www.w3.org/2000/svg" xmlns:xlink="http://www.w3.org/1999/xlink" x="0px" y="0px"
	 width="100px" height="100px" viewBox="0 0 100 100" enable-background="new 0 0 100 100" xml:space="preserve">
<g>
	<path fill-rule="evenodd" clip-rule="evenodd" fill="#333333" d="M59.127,59.282c-0.145,0.18-0.279,0.452-0.498,0.604
		c-0.475,0.326-0.986,0.595-1.492,0.873c-0.49,0.273-0.889,0.141-1.162-0.332c-1.018-1.754-2.031-3.513-3.037-5.272
		c-0.266-0.468-0.201-0.883,0.287-1.174c0.496-0.296,0.994-0.586,1.498-0.867c0.459-0.257,0.863-0.165,1.127,0.286
		c1.043,1.785,2.07,3.581,3.1,5.374C59.016,58.891,59.042,59.033,59.127,59.282z"/>
	<path fill-rule="evenodd" clip-rule="evenodd" fill="#333333" d="M32.245,50.898c0-0.599,0-1.197,0-1.795
		c0.031-0.152,0.082-0.305,0.092-0.458c0.213-3.003,1.137-5.775,2.787-8.285c2.436-3.706,5.779-6.229,10.068-7.405
		c1.277-0.352,2.613-0.486,3.922-0.721c0.6,0,1.197,0,1.795,0c0.135,0.03,0.27,0.077,0.404,0.088
		c3.576,0.255,6.789,1.476,9.602,3.693c3.912,3.086,6.178,7.131,6.725,12.078c0.459,4.136-0.443,8.003-2.717,11.505
		c-2.428,3.737-5.787,6.266-10.094,7.448c-1.277,0.351-2.611,0.487-3.92,0.72c-0.598,0-1.195,0-1.795,0
		c-0.135-0.029-0.268-0.077-0.406-0.087c-2.98-0.203-5.736-1.107-8.242-2.73c-3.76-2.438-6.313-5.803-7.5-10.135
		C32.614,53.539,32.479,52.205,32.245,50.898z M65.653,50.006c0.01-8.621-6.951-15.599-15.605-15.647
		c-8.615-0.05-15.67,6.986-15.68,15.635c-0.008,8.622,6.951,15.601,15.607,15.648C58.592,65.691,65.645,58.656,65.653,50.006z"/>
	<path fill-rule="evenodd" clip-rule="evenodd" fill="#333333" d="M40.946,44.124c-0.049-1.806,0.83-3.195,2.463-3.853
		c0.09-0.036,0.301,0.041,0.35,0.127c1.039,1.769,2.063,3.544,3.078,5.325c0.047,0.083,0.027,0.28-0.037,0.339
		c-1.004,0.888-1.021,2.039-0.783,3.199c0.445,2.168,1.463,4.035,3.191,5.457c0.85,0.696,1.799,1.097,2.934,0.687
		c0.1-0.036,0.33,0.081,0.395,0.189c1.02,1.734,2.023,3.475,3.012,5.226c0.053,0.094-0.033,0.366-0.135,0.431
		c-1.576,0.988-3.135,1.09-4.736-0.013c-1.918-1.321-3.453-3.004-4.791-4.877c-2.207-3.089-3.914-6.417-4.705-10.165
		c-0.074-0.349-0.135-0.703-0.174-1.058C40.969,44.801,40.965,44.461,40.946,44.124z"/>
	<path fill-rule="evenodd" clip-rule="evenodd" fill="#333333" d="M46.625,37.926c0.156,0.136,0.436,0.276,0.572,0.504
		c1.035,1.747,2.043,3.509,3.059,5.266c0.277,0.483,0.178,0.885-0.295,1.173c-0.492,0.299-0.994,0.584-1.5,0.863
		c-0.49,0.273-0.881,0.143-1.158-0.335c-1.02-1.755-2.037-3.512-3.051-5.27c-0.225-0.39-0.25-0.795,0.15-1.062
		c0.578-0.385,1.197-0.71,1.803-1.053C46.288,37.968,46.397,37.971,46.625,37.926z"/>
</g>
</svg>
